<?xml version="1.0" encoding="us-ascii" standalone="no"?><svg xmlns="http://www.w3.org/2000/svg" xmlns:xlink="http://www.w3.org/1999/xlink" contentStyleType="text/css" height="978px" preserveAspectRatio="none" style="width:739px;height:978px;background:#FFFFFF;" version="1.1" viewBox="0 0 739 978" width="739px" zoomAndPan="magnify"><defs/><g><text fill="#000000" font-family="sans-serif" font-size="25" font-weight="bold" lengthAdjust="spacing" textLength="415" x="158.25" y="38.2056">BLE + QR-MPM indirect mode</text><rect fill="none" height="88.3984" style="stroke:#000000;stroke-width:1.5;" width="267.5" x="10" y="390.2891"/><rect fill="none" height="302.1953" style="stroke:#000000;stroke-width:1.5;" width="502.5" x="10" y="535.8203"/><line style="stroke:#181818;stroke-width:0.5;stroke-dasharray:5.0,5.0;" x1="58" x2="58" y1="102.6953" y2="927.2813"/><line style="stroke:#181818;stroke-width:0.5;stroke-dasharray:5.0,5.0;" x1="227.5" x2="227.5" y1="102.6953" y2="927.2813"/><rect fill="#E2E2F0" height="46.5938" rx="2.5" ry="2.5" style="stroke:#181818;stroke-width:0.5;" width="77" x="20" y="55.1016"/><text fill="#000000" font-family="sans-serif" font-size="14" font-style="italic" lengthAdjust="spacing" textLength="63" x="27" y="75.0967">&#171;Mobile&#187;</text><text fill="#000000" font-family="sans-serif" font-size="14" lengthAdjust="spacing" textLength="32" x="42.5" y="91.3936">&#49888;&#48516;&#51613;&#50545;</text><rect fill="#E2E2F0" height="46.5938" rx="2.5" ry="2.5" style="stroke:#181818;stroke-width:0.5;" width="77" x="20" y="926.2813"/><text fill="#000000" font-family="sans-serif" font-size="14" font-style="italic" lengthAdjust="spacing" textLength="63" x="27" y="946.2764">&#171;Mobile&#187;</text><text fill="#000000" font-family="sans-serif" font-size="14" lengthAdjust="spacing" textLength="32" x="42.5" y="962.5732">&#49888;&#48516;&#51613;&#50545;</text><rect fill="#E2E2F0" height="46.5938" rx="2.5" ry="2.5" style="stroke:#181818;stroke-width:0.5;" width="80" x="187.5" y="55.1016"/><text fill="#000000" font-family="sans-serif" font-size="14" font-style="italic" lengthAdjust="spacing" textLength="66" x="194.5" y="75.0967">&#171;Device&#187;</text><text fill="#000000" font-family="sans-serif" font-size="14" lengthAdjust="spacing" textLength="32" x="211.5" y="91.3936">&#51025;&#45824;&#51109;&#52824;</text><rect fill="#E2E2F0" height="46.5938" rx="2.5" ry="2.5" style="stroke:#181818;stroke-width:0.5;" width="80" x="187.5" y="926.2813"/><text fill="#000000" font-family="sans-serif" font-size="14" font-style="italic" lengthAdjust="spacing" textLength="66" x="194.5" y="946.2764">&#171;Device&#187;</text><text fill="#000000" font-family="sans-serif" font-size="14" lengthAdjust="spacing" textLength="32" x="211.5" y="962.5732">&#51025;&#45824;&#51109;&#52824;</text><rect fill="#EEEEEE" height="3" style="stroke:#EEEEEE;stroke-width:1.0;" width="732.5" x="0" y="133.2617"/><line style="stroke:#000000;stroke-width:1.0;" x1="0" x2="732.5" y1="133.2617" y2="133.2617"/><line style="stroke:#000000;stroke-width:1.0;" x1="0" x2="732.5" y1="136.2617" y2="136.2617"/><rect fill="#EEEEEE" height="23.1328" style="stroke:#000000;stroke-width:2.0;" width="43" x="344.75" y="122.6953"/><text fill="#000000" font-family="sans-serif" font-size="13" font-weight="bold" lengthAdjust="spacing" textLength="24" x="350.75" y="138.7622">&#49440;&#52376;&#47532;</text><line style="stroke:#181818;stroke-width:1.0;" x1="227.5" x2="269.5" y1="233.9922" y2="233.9922"/><line style="stroke:#181818;stroke-width:1.0;" x1="269.5" x2="269.5" y1="233.9922" y2="246.9922"/><line style="stroke:#181818;stroke-width:1.0;" x1="228.5" x2="269.5" y1="246.9922" y2="246.9922"/><polygon fill="#181818" points="238.5,242.9922,228.5,246.9922,238.5,250.9922,234.5,246.9922" style="stroke:#181818;stroke-width:1.0;"/><text fill="#000000" font-family="sans-serif" font-size="13" font-weight="bold" lengthAdjust="spacing" textLength="21" x="234.5" y="228.9263">(1)</text><text fill="#000000" font-family="sans-serif" font-size="13" font-weight="bold" lengthAdjust="spacing" textLength="40" x="259.5" y="228.9263">M150</text><text fill="#000000" font-family="sans-serif" font-size="13" lengthAdjust="spacing" textLength="44" x="303.5" y="228.9263">&#47700;&#49884;&#51648; &#49373;&#49457;</text><path d="M359,160.8281 L359,306.8281 L722,306.8281 L722,170.8281 L712,160.8281 L359,160.8281 " fill="#FEFFDD" style="stroke:#181818;stroke-width:0.5;"/><path d="M712,160.8281 L712,170.8281 L722,170.8281 L712,160.8281 " fill="#FEFFDD" style="stroke:#181818;stroke-width:0.5;"/><text fill="#000000" font-family="sans-serif" font-size="13" font-weight="bold" lengthAdjust="spacing" textLength="55" x="365" y="177.895">-- M150</text><text fill="#000000" font-family="sans-serif" font-size="13" lengthAdjust="spacing" textLength="8" x="365" y="193.0278">{</text><text fill="#000000" font-family="sans-serif" font-size="13" lengthAdjust="spacing" textLength="80" x="373" y="208.1606">"type":"mip",</text><text fill="#000000" font-family="sans-serif" font-size="13" lengthAdjust="spacing" textLength="106" x="373" y="223.2935">"version":"1.0.0",</text><text fill="#000000" font-family="sans-serif" font-size="13" lengthAdjust="spacing" textLength="80" x="373" y="238.4263">"cmd":"150",</text><text fill="#000000" font-family="sans-serif" font-size="13" lengthAdjust="spacing" textLength="284" x="373" y="253.5591">"trxcode":"20211102162732145432176790",</text><text fill="#000000" font-family="sans-serif" font-size="13" lengthAdjust="spacing" textLength="334" x="373" y="268.6919">"bleid":"550e8400-e29b-41d4-a716-446655440000",</text><text fill="#000000" font-family="sans-serif" font-size="13" lengthAdjust="spacing" textLength="148" x="373" y="283.8247">"blepwd":"1234567890"</text><text fill="#000000" font-family="sans-serif" font-size="13" lengthAdjust="spacing" textLength="8" x="365" y="298.9575">}</text><line style="stroke:#181818;stroke-width:1.0;" x1="227.5" x2="269.5" y1="333.1563" y2="333.1563"/><line style="stroke:#181818;stroke-width:1.0;" x1="269.5" x2="269.5" y1="333.1563" y2="346.1563"/><line style="stroke:#181818;stroke-width:1.0;" x1="228.5" x2="269.5" y1="346.1563" y2="346.1563"/><polygon fill="#181818" points="238.5,342.1563,228.5,346.1563,238.5,350.1563,234.5,346.1563" style="stroke:#181818;stroke-width:1.0;"/><text fill="#000000" font-family="sans-serif" font-size="13" font-weight="bold" lengthAdjust="spacing" textLength="21" x="234.5" y="328.0903">(2)</text><text fill="#000000" font-family="sans-serif" font-size="13" lengthAdjust="spacing" textLength="38" x="259.5" y="328.0903">QR &#54364;&#52636;</text><line style="stroke:#181818;stroke-width:1.0;" x1="59.5" x2="69.5" y1="375.2891" y2="371.2891"/><line style="stroke:#181818;stroke-width:1.0;" x1="59.5" x2="69.5" y1="375.2891" y2="379.2891"/><line style="stroke:#181818;stroke-width:1.0;stroke-dasharray:2.0,2.0;" x1="58.5" x2="226.5" y1="375.2891" y2="375.2891"/><text fill="#000000" font-family="sans-serif" font-size="13" font-weight="bold" lengthAdjust="spacing" textLength="21" x="75.5" y="370.2231">(3)</text><text fill="#000000" font-family="sans-serif" font-size="13" lengthAdjust="spacing" textLength="34" x="100.5" y="370.2231">QR&#49828;&#52884;</text><path d="M10,390.2891 L132,390.2891 L132,397.4219 L122,407.4219 L10,407.4219 L10,390.2891 " fill="#EEEEEE" style="stroke:#000000;stroke-width:1.5;"/><rect fill="none" height="88.3984" style="stroke:#000000;stroke-width:1.5;" width="267.5" x="10" y="390.2891"/><text fill="#000000" font-family="sans-serif" font-size="13" font-weight="bold" lengthAdjust="spacing" textLength="77" x="25" y="403.356">BLE &#50672;&#44208; &#52488;&#44592;&#54868;</text><line style="stroke:#181818;stroke-width:1.0;" x1="58.5" x2="100.5" y1="428.5547" y2="428.5547"/><line style="stroke:#181818;stroke-width:1.0;" x1="100.5" x2="100.5" y1="428.5547" y2="441.5547"/><line style="stroke:#181818;stroke-width:1.0;" x1="59.5" x2="100.5" y1="441.5547" y2="441.5547"/><polygon fill="#181818" points="69.5,437.5547,59.5,441.5547,69.5,445.5547,65.5,441.5547" style="stroke:#181818;stroke-width:1.0;"/><text fill="#000000" font-family="sans-serif" font-size="13" font-weight="bold" lengthAdjust="spacing" textLength="21" x="65.5" y="423.4888">(4)</text><text fill="#000000" font-family="sans-serif" font-size="13" lengthAdjust="spacing" textLength="117" x="90.5" y="423.4888">M150.bleid &#47196; &#44592;&#44592;&#44160;&#49353;</text><line style="stroke:#181818;stroke-width:1.0;" x1="225.5" x2="215.5" y1="470.6875" y2="466.6875"/><line style="stroke:#181818;stroke-width:1.0;" x1="225.5" x2="215.5" y1="470.6875" y2="474.6875"/><line style="stroke:#181818;stroke-width:1.0;stroke-dasharray:2.0,2.0;" x1="58.5" x2="226.5" y1="470.6875" y2="470.6875"/><text fill="#000000" font-family="sans-serif" font-size="13" font-weight="bold" lengthAdjust="spacing" textLength="21" x="65.5" y="465.6216">(5)</text><text fill="#000000" font-family="sans-serif" font-size="13" lengthAdjust="spacing" textLength="44" x="90.5" y="465.6216">BLE &#50672;&#44208;</text><rect fill="#EEEEEE" height="3" style="stroke:#EEEEEE;stroke-width:1.0;" width="732.5" x="0" y="506.2539"/><line style="stroke:#000000;stroke-width:1.0;" x1="0" x2="732.5" y1="506.2539" y2="506.2539"/><line style="stroke:#000000;stroke-width:1.0;" x1="0" x2="732.5" y1="509.2539" y2="509.2539"/><rect fill="#EEEEEE" height="23.1328" style="stroke:#000000;stroke-width:2.0;" width="94" x="319.25" y="495.6875"/><text fill="#000000" font-family="sans-serif" font-size="13" font-weight="bold" lengthAdjust="spacing" textLength="75" x="325.25" y="511.7544">VP &#51228;&#52636; &#48143; &#44160;&#51613;</text><path d="M10,535.8203 L127,535.8203 L127,542.9531 L117,552.9531 L10,552.9531 L10,535.8203 " fill="#EEEEEE" style="stroke:#000000;stroke-width:1.5;"/><rect fill="none" height="302.1953" style="stroke:#000000;stroke-width:1.5;" width="502.5" x="10" y="535.8203"/><text fill="#000000" font-family="sans-serif" font-size="13" font-weight="bold" lengthAdjust="spacing" textLength="72" x="25" y="548.8872">BLE &#51064;&#53552;&#54168;&#51060;&#49828;</text><polygon fill="#181818" points="215.5,570.0859,225.5,574.0859,215.5,578.0859,219.5,574.0859" style="stroke:#181818;stroke-width:1.0;"/><line style="stroke:#181818;stroke-width:1.0;" x1="58.5" x2="221.5" y1="574.0859" y2="574.0859"/><text fill="#000000" font-family="sans-serif" font-size="13" font-weight="bold" lengthAdjust="spacing" textLength="21" x="65.5" y="569.02">(6)</text><text fill="#000000" font-family="sans-serif" font-size="13" font-weight="bold" lengthAdjust="spacing" textLength="72" x="90.5" y="569.02">password</text><text fill="#000000" font-family="sans-serif" font-size="13" lengthAdjust="spacing" textLength="44" x="166.5" y="569.02">&#47700;&#49884;&#51648; &#51204;&#49569;</text><line style="stroke:#181818;stroke-width:1.0;" x1="227.5" x2="269.5" y1="603.2188" y2="603.2188"/><line style="stroke:#181818;stroke-width:1.0;" x1="269.5" x2="269.5" y1="603.2188" y2="616.2188"/><line style="stroke:#181818;stroke-width:1.0;" x1="228.5" x2="269.5" y1="616.2188" y2="616.2188"/><polygon fill="#181818" points="238.5,612.2188,228.5,616.2188,238.5,620.2188,234.5,616.2188" style="stroke:#181818;stroke-width:1.0;"/><text fill="#000000" font-family="sans-serif" font-size="13" font-weight="bold" lengthAdjust="spacing" textLength="21" x="234.5" y="598.1528">(7)</text><text fill="#000000" font-family="sans-serif" font-size="13" lengthAdjust="spacing" textLength="182" x="259.5" y="598.1528">&#50672;&#44208; &#48708;&#48128;&#48264;&#54840;(password.blepw) &#54869;&#51064;</text><line style="stroke:#181818;stroke-width:1.0;" x1="227.5" x2="269.5" y1="645.3516" y2="645.3516"/><line style="stroke:#181818;stroke-width:1.0;" x1="269.5" x2="269.5" y1="645.3516" y2="658.3516"/><line style="stroke:#181818;stroke-width:1.0;" x1="228.5" x2="269.5" y1="658.3516" y2="658.3516"/><polygon fill="#181818" points="238.5,654.3516,228.5,658.3516,238.5,662.3516,234.5,658.3516" style="stroke:#181818;stroke-width:1.0;"/><text fill="#000000" font-family="sans-serif" font-size="13" font-weight="bold" lengthAdjust="spacing" textLength="21" x="234.5" y="640.2856">(8)</text><text fill="#000000" font-family="sans-serif" font-size="13" lengthAdjust="spacing" textLength="59" x="259.5" y="640.2856">profile &#49373;&#49457;</text><path d="M330,632.7188 L330,657.7188 L497,657.7188 L497,642.7188 L487,632.7188 L330,632.7188 " fill="#FEFFDD" style="stroke:#181818;stroke-width:0.5;"/><path d="M487,632.7188 L487,642.7188 L497,642.7188 L487,632.7188 " fill="#FEFFDD" style="stroke:#181818;stroke-width:0.5;"/><text fill="#000000" font-family="sans-serif" font-size="13" lengthAdjust="spacing" textLength="146" x="336" y="649.7856">&#54596;&#50836;&#49884; image, ci &#54637;&#47785; &#49444;&#51221; &#44032;&#45733;</text><polygon fill="#181818" points="69.5,683.4844,59.5,687.4844,69.5,691.4844,65.5,687.4844" style="stroke:#181818;stroke-width:1.0;"/><line style="stroke:#181818;stroke-width:1.0;" x1="63.5" x2="226.5" y1="687.4844" y2="687.4844"/><text fill="#000000" font-family="sans-serif" font-size="13" font-weight="bold" lengthAdjust="spacing" textLength="21" x="75.5" y="682.4185">(9)</text><text fill="#000000" font-family="sans-serif" font-size="13" font-weight="bold" lengthAdjust="spacing" textLength="48" x="100.5" y="682.4185">profile</text><text fill="#000000" font-family="sans-serif" font-size="13" lengthAdjust="spacing" textLength="44" x="152.5" y="682.4185">&#47700;&#49884;&#51648; &#51204;&#49569;</text><line style="stroke:#181818;stroke-width:1.0;" x1="58.5" x2="100.5" y1="716.6172" y2="716.6172"/><line style="stroke:#181818;stroke-width:1.0;" x1="100.5" x2="100.5" y1="716.6172" y2="729.6172"/><line style="stroke:#181818;stroke-width:1.0;" x1="59.5" x2="100.5" y1="729.6172" y2="729.6172"/><polygon fill="#181818" points="69.5,725.6172,59.5,729.6172,69.5,733.6172,65.5,729.6172" style="stroke:#181818;stroke-width:1.0;"/><text fill="#000000" font-family="sans-serif" font-size="13" font-weight="bold" lengthAdjust="spacing" textLength="30" x="65.5" y="711.5513">(10)</text><text fill="#000000" font-family="sans-serif" font-size="13" lengthAdjust="spacing" textLength="37" x="99.5" y="711.5513">VP &#49373;&#49457;</text><polygon fill="#181818" points="215.5,754.75,225.5,758.75,215.5,762.75,219.5,758.75" style="stroke:#181818;stroke-width:1.0;"/><line style="stroke:#181818;stroke-width:1.0;" x1="58.5" x2="221.5" y1="758.75" y2="758.75"/><text fill="#000000" font-family="sans-serif" font-size="13" font-weight="bold" lengthAdjust="spacing" textLength="30" x="65.5" y="753.6841">(11)</text><text fill="#000000" font-family="sans-serif" font-size="13" font-weight="bold" lengthAdjust="spacing" textLength="18" x="99.5" y="753.6841">vp</text><text fill="#000000" font-family="sans-serif" font-size="13" lengthAdjust="spacing" textLength="44" x="121.5" y="753.6841">&#47700;&#49884;&#51648; &#51204;&#49569;</text><line style="stroke:#181818;stroke-width:1.0;" x1="227.5" x2="269.5" y1="787.8828" y2="787.8828"/><line style="stroke:#181818;stroke-width:1.0;" x1="269.5" x2="269.5" y1="787.8828" y2="800.8828"/><line style="stroke:#181818;stroke-width:1.0;" x1="228.5" x2="269.5" y1="800.8828" y2="800.8828"/><polygon fill="#181818" points="238.5,796.8828,228.5,800.8828,238.5,804.8828,234.5,800.8828" style="stroke:#181818;stroke-width:1.0;"/><text fill="#000000" font-family="sans-serif" font-size="13" font-weight="bold" lengthAdjust="spacing" textLength="30" x="234.5" y="782.8169">(12)</text><text fill="#000000" font-family="sans-serif" font-size="13" lengthAdjust="spacing" textLength="37" x="268.5" y="782.8169">VP &#44160;&#51613;</text><polygon fill="#181818" points="69.5,826.0156,59.5,830.0156,69.5,834.0156,65.5,830.0156" style="stroke:#181818;stroke-width:1.0;"/><line style="stroke:#181818;stroke-width:1.0;" x1="63.5" x2="226.5" y1="830.0156" y2="830.0156"/><text fill="#000000" font-family="sans-serif" font-size="13" font-weight="bold" lengthAdjust="spacing" textLength="30" x="75.5" y="824.9497">(13)</text><text fill="#000000" font-family="sans-serif" font-size="13" font-weight="bold" lengthAdjust="spacing" textLength="40" x="109.5" y="824.9497">finish</text><text fill="#000000" font-family="sans-serif" font-size="13" lengthAdjust="spacing" textLength="44" x="153.5" y="824.9497">&#47700;&#49884;&#51648; &#51204;&#49569;</text><rect fill="#EEEEEE" height="3" style="stroke:#EEEEEE;stroke-width:1.0;" width="732.5" x="0" y="865.582"/><line style="stroke:#000000;stroke-width:1.0;" x1="0" x2="732.5" y1="865.582" y2="865.582"/><line style="stroke:#000000;stroke-width:1.0;" x1="0" x2="732.5" y1="868.582" y2="868.582"/><rect fill="#EEEEEE" height="23.1328" style="stroke:#000000;stroke-width:2.0;" width="56" x="338.25" y="855.0156"/><text fill="#000000" font-family="sans-serif" font-size="13" font-weight="bold" lengthAdjust="spacing" textLength="37" x="344.25" y="871.0825">&#44144;&#47000; &#51333;&#47308;</text><line style="stroke:#181818;stroke-width:1.0;" x1="59.5" x2="69.5" y1="909.2813" y2="905.2813"/><line style="stroke:#181818;stroke-width:1.0;" x1="59.5" x2="69.5" y1="909.2813" y2="913.2813"/><line style="stroke:#181818;stroke-width:1.0;" x1="225.5" x2="215.5" y1="909.2813" y2="905.2813"/><line style="stroke:#181818;stroke-width:1.0;" x1="225.5" x2="215.5" y1="909.2813" y2="913.2813"/><line style="stroke:#181818;stroke-width:1.0;stroke-dasharray:2.0,2.0;" x1="58.5" x2="226.5" y1="909.2813" y2="909.2813"/><text fill="#000000" font-family="sans-serif" font-size="13" font-weight="bold" lengthAdjust="spacing" textLength="30" x="75.5" y="904.2153">(14)</text><text fill="#000000" font-family="sans-serif" font-size="13" lengthAdjust="spacing" textLength="64" x="109.5" y="904.2153">BLE &#50672;&#44208; &#54644;&#51228;</text></g></svg>