<?xml version="1.0" encoding="us-ascii" standalone="no"?><svg xmlns="http://www.w3.org/2000/svg" xmlns:xlink="http://www.w3.org/1999/xlink" contentStyleType="text/css" height="1008px" preserveAspectRatio="none" style="width:581px;height:1008px;background:#FFFFFF;" version="1.1" viewBox="0 0 581 1008" width="581px" zoomAndPan="magnify"><defs/><g><text fill="#000000" font-family="sans-serif" font-size="25" font-weight="bold" lengthAdjust="spacing" textLength="408" x="82.75" y="38.2056">BLE + QR-CPM indirect mode</text><rect fill="none" height="88.3984" style="stroke:#000000;stroke-width:1.5;" width="430.5" x="10" y="390.2891"/><rect fill="none" height="331.3281" style="stroke:#000000;stroke-width:1.5;" width="554.5" x="10" y="535.8203"/><line style="stroke:#181818;stroke-width:0.5;stroke-dasharray:5.0,5.0;" x1="58" x2="58" y1="102.6953" y2="956.4141"/><line style="stroke:#181818;stroke-width:0.5;stroke-dasharray:5.0,5.0;" x1="279.5" x2="279.5" y1="102.6953" y2="956.4141"/><rect fill="#E2E2F0" height="46.5938" rx="2.5" ry="2.5" style="stroke:#181818;stroke-width:0.5;" width="77" x="20" y="55.1016"/><text fill="#000000" font-family="sans-serif" font-size="14" font-style="italic" lengthAdjust="spacing" textLength="63" x="27" y="75.0967">&#171;Mobile&#187;</text><text fill="#000000" font-family="sans-serif" font-size="14" lengthAdjust="spacing" textLength="32" x="42.5" y="91.3936">&#49888;&#48516;&#51613;&#50545;</text><rect fill="#E2E2F0" height="46.5938" rx="2.5" ry="2.5" style="stroke:#181818;stroke-width:0.5;" width="77" x="20" y="955.4141"/><text fill="#000000" font-family="sans-serif" font-size="14" font-style="italic" lengthAdjust="spacing" textLength="63" x="27" y="975.4092">&#171;Mobile&#187;</text><text fill="#000000" font-family="sans-serif" font-size="14" lengthAdjust="spacing" textLength="32" x="42.5" y="991.7061">&#49888;&#48516;&#51613;&#50545;</text><rect fill="#E2E2F0" height="46.5938" rx="2.5" ry="2.5" style="stroke:#181818;stroke-width:0.5;" width="80" x="239.5" y="55.1016"/><text fill="#000000" font-family="sans-serif" font-size="14" font-style="italic" lengthAdjust="spacing" textLength="66" x="246.5" y="75.0967">&#171;Device&#187;</text><text fill="#000000" font-family="sans-serif" font-size="14" lengthAdjust="spacing" textLength="32" x="263.5" y="91.3936">&#51025;&#45824;&#51109;&#52824;</text><rect fill="#E2E2F0" height="46.5938" rx="2.5" ry="2.5" style="stroke:#181818;stroke-width:0.5;" width="80" x="239.5" y="955.4141"/><text fill="#000000" font-family="sans-serif" font-size="14" font-style="italic" lengthAdjust="spacing" textLength="66" x="246.5" y="975.4092">&#171;Device&#187;</text><text fill="#000000" font-family="sans-serif" font-size="14" lengthAdjust="spacing" textLength="32" x="263.5" y="991.7061">&#51025;&#45824;&#51109;&#52824;</text><rect fill="#EEEEEE" height="3" style="stroke:#EEEEEE;stroke-width:1.0;" width="574.5" x="0" y="133.2617"/><line style="stroke:#000000;stroke-width:1.0;" x1="0" x2="574.5" y1="133.2617" y2="133.2617"/><line style="stroke:#000000;stroke-width:1.0;" x1="0" x2="574.5" y1="136.2617" y2="136.2617"/><rect fill="#EEEEEE" height="23.1328" style="stroke:#000000;stroke-width:2.0;" width="43" x="265.75" y="122.6953"/><text fill="#000000" font-family="sans-serif" font-size="13" font-weight="bold" lengthAdjust="spacing" textLength="24" x="271.75" y="138.7622">&#49440;&#52376;&#47532;</text><line style="stroke:#181818;stroke-width:1.0;" x1="58.5" x2="100.5" y1="233.9922" y2="233.9922"/><line style="stroke:#181818;stroke-width:1.0;" x1="100.5" x2="100.5" y1="233.9922" y2="246.9922"/><line style="stroke:#181818;stroke-width:1.0;" x1="59.5" x2="100.5" y1="246.9922" y2="246.9922"/><polygon fill="#181818" points="69.5,242.9922,59.5,246.9922,69.5,250.9922,65.5,246.9922" style="stroke:#181818;stroke-width:1.0;"/><text fill="#000000" font-family="sans-serif" font-size="13" font-weight="bold" lengthAdjust="spacing" textLength="21" x="65.5" y="228.9263">(1)</text><text fill="#000000" font-family="sans-serif" font-size="13" font-weight="bold" lengthAdjust="spacing" textLength="40" x="90.5" y="228.9263">M150</text><text fill="#000000" font-family="sans-serif" font-size="13" lengthAdjust="spacing" textLength="44" x="134.5" y="228.9263">&#47700;&#49884;&#51648; &#49373;&#49457;</text><path d="M190,160.8281 L190,306.8281 L553,306.8281 L553,170.8281 L543,160.8281 L190,160.8281 " fill="#FEFFDD" style="stroke:#181818;stroke-width:0.5;"/><path d="M543,160.8281 L543,170.8281 L553,170.8281 L543,160.8281 " fill="#FEFFDD" style="stroke:#181818;stroke-width:0.5;"/><text fill="#000000" font-family="sans-serif" font-size="13" font-weight="bold" lengthAdjust="spacing" textLength="55" x="196" y="177.895">-- M150</text><text fill="#000000" font-family="sans-serif" font-size="13" lengthAdjust="spacing" textLength="8" x="196" y="193.0278">{</text><text fill="#000000" font-family="sans-serif" font-size="13" lengthAdjust="spacing" textLength="80" x="204" y="208.1606">"type":"mip",</text><text fill="#000000" font-family="sans-serif" font-size="13" lengthAdjust="spacing" textLength="106" x="204" y="223.2935">"version":"1.0.0",</text><text fill="#000000" font-family="sans-serif" font-size="13" lengthAdjust="spacing" textLength="80" x="204" y="238.4263">"cmd":"150",</text><text fill="#000000" font-family="sans-serif" font-size="13" lengthAdjust="spacing" textLength="284" x="204" y="253.5591">"trxcode":"20211102162732145432176790",</text><text fill="#000000" font-family="sans-serif" font-size="13" lengthAdjust="spacing" textLength="334" x="204" y="268.6919">"bleid":"550e8400-e29b-41d4-a716-446655440000",</text><text fill="#000000" font-family="sans-serif" font-size="13" lengthAdjust="spacing" textLength="148" x="204" y="283.8247">"blepwd":"1234567890"</text><text fill="#000000" font-family="sans-serif" font-size="13" lengthAdjust="spacing" textLength="8" x="196" y="298.9575">}</text><line style="stroke:#181818;stroke-width:1.0;" x1="58.5" x2="100.5" y1="333.1563" y2="333.1563"/><line style="stroke:#181818;stroke-width:1.0;" x1="100.5" x2="100.5" y1="333.1563" y2="346.1563"/><line style="stroke:#181818;stroke-width:1.0;" x1="59.5" x2="100.5" y1="346.1563" y2="346.1563"/><polygon fill="#181818" points="69.5,342.1563,59.5,346.1563,69.5,350.1563,65.5,346.1563" style="stroke:#181818;stroke-width:1.0;"/><text fill="#000000" font-family="sans-serif" font-size="13" font-weight="bold" lengthAdjust="spacing" textLength="21" x="65.5" y="328.0903">(2)</text><text fill="#000000" font-family="sans-serif" font-size="13" lengthAdjust="spacing" textLength="38" x="90.5" y="328.0903">QR &#54364;&#52636;</text><line style="stroke:#181818;stroke-width:1.0;" x1="277.5" x2="267.5" y1="375.2891" y2="371.2891"/><line style="stroke:#181818;stroke-width:1.0;" x1="277.5" x2="267.5" y1="375.2891" y2="379.2891"/><line style="stroke:#181818;stroke-width:1.0;stroke-dasharray:2.0,2.0;" x1="58.5" x2="278.5" y1="375.2891" y2="375.2891"/><text fill="#000000" font-family="sans-serif" font-size="13" font-weight="bold" lengthAdjust="spacing" textLength="21" x="65.5" y="370.2231">(3)</text><text fill="#000000" font-family="sans-serif" font-size="13" lengthAdjust="spacing" textLength="34" x="90.5" y="370.2231">QR&#49828;&#52884;</text><path d="M10,390.2891 L132,390.2891 L132,397.4219 L122,407.4219 L10,407.4219 L10,390.2891 " fill="#EEEEEE" style="stroke:#000000;stroke-width:1.5;"/><rect fill="none" height="88.3984" style="stroke:#000000;stroke-width:1.5;" width="430.5" x="10" y="390.2891"/><text fill="#000000" font-family="sans-serif" font-size="13" font-weight="bold" lengthAdjust="spacing" textLength="77" x="25" y="403.356">BLE &#50672;&#44208; &#52488;&#44592;&#54868;</text><line style="stroke:#181818;stroke-width:1.0;" x1="279.5" x2="321.5" y1="428.5547" y2="428.5547"/><line style="stroke:#181818;stroke-width:1.0;" x1="321.5" x2="321.5" y1="428.5547" y2="441.5547"/><line style="stroke:#181818;stroke-width:1.0;" x1="280.5" x2="321.5" y1="441.5547" y2="441.5547"/><polygon fill="#181818" points="290.5,437.5547,280.5,441.5547,290.5,445.5547,286.5,441.5547" style="stroke:#181818;stroke-width:1.0;"/><text fill="#000000" font-family="sans-serif" font-size="13" font-weight="bold" lengthAdjust="spacing" textLength="21" x="286.5" y="423.4888">(4)</text><text fill="#000000" font-family="sans-serif" font-size="13" lengthAdjust="spacing" textLength="117" x="311.5" y="423.4888">M150.bleid &#47196; &#44592;&#44592;&#44160;&#49353;</text><line style="stroke:#181818;stroke-width:1.0;" x1="59.5" x2="69.5" y1="470.6875" y2="466.6875"/><line style="stroke:#181818;stroke-width:1.0;" x1="59.5" x2="69.5" y1="470.6875" y2="474.6875"/><line style="stroke:#181818;stroke-width:1.0;stroke-dasharray:2.0,2.0;" x1="58.5" x2="278.5" y1="470.6875" y2="470.6875"/><text fill="#000000" font-family="sans-serif" font-size="13" font-weight="bold" lengthAdjust="spacing" textLength="21" x="75.5" y="465.6216">(5)</text><text fill="#000000" font-family="sans-serif" font-size="13" lengthAdjust="spacing" textLength="44" x="100.5" y="465.6216">BLE &#50672;&#44208;</text><rect fill="#EEEEEE" height="3" style="stroke:#EEEEEE;stroke-width:1.0;" width="574.5" x="0" y="506.2539"/><line style="stroke:#000000;stroke-width:1.0;" x1="0" x2="574.5" y1="506.2539" y2="506.2539"/><line style="stroke:#000000;stroke-width:1.0;" x1="0" x2="574.5" y1="509.2539" y2="509.2539"/><rect fill="#EEEEEE" height="23.1328" style="stroke:#000000;stroke-width:2.0;" width="94" x="240.25" y="495.6875"/><text fill="#000000" font-family="sans-serif" font-size="13" font-weight="bold" lengthAdjust="spacing" textLength="75" x="246.25" y="511.7544">VP &#51228;&#52636; &#48143; &#44160;&#51613;</text><path d="M10,535.8203 L127,535.8203 L127,542.9531 L117,552.9531 L10,552.9531 L10,535.8203 " fill="#EEEEEE" style="stroke:#000000;stroke-width:1.5;"/><rect fill="none" height="331.3281" style="stroke:#000000;stroke-width:1.5;" width="554.5" x="10" y="535.8203"/><text fill="#000000" font-family="sans-serif" font-size="13" font-weight="bold" lengthAdjust="spacing" textLength="72" x="25" y="548.8872">BLE &#51064;&#53552;&#54168;&#51060;&#49828;</text><polygon fill="#181818" points="69.5,570.0859,59.5,574.0859,69.5,578.0859,65.5,574.0859" style="stroke:#181818;stroke-width:1.0;"/><line style="stroke:#181818;stroke-width:1.0;" x1="63.5" x2="278.5" y1="574.0859" y2="574.0859"/><text fill="#000000" font-family="sans-serif" font-size="13" font-weight="bold" lengthAdjust="spacing" textLength="21" x="75.5" y="569.02">(6)</text><text fill="#000000" font-family="sans-serif" font-size="13" font-weight="bold" lengthAdjust="spacing" textLength="72" x="100.5" y="569.02">password</text><text fill="#000000" font-family="sans-serif" font-size="13" lengthAdjust="spacing" textLength="44" x="176.5" y="569.02">&#47700;&#49884;&#51648; &#51204;&#49569;</text><line style="stroke:#181818;stroke-width:1.0;" x1="58.5" x2="100.5" y1="603.2188" y2="603.2188"/><line style="stroke:#181818;stroke-width:1.0;" x1="100.5" x2="100.5" y1="603.2188" y2="616.2188"/><line style="stroke:#181818;stroke-width:1.0;" x1="59.5" x2="100.5" y1="616.2188" y2="616.2188"/><polygon fill="#181818" points="69.5,612.2188,59.5,616.2188,69.5,620.2188,65.5,616.2188" style="stroke:#181818;stroke-width:1.0;"/><text fill="#000000" font-family="sans-serif" font-size="13" font-weight="bold" lengthAdjust="spacing" textLength="21" x="65.5" y="598.1528">(7)</text><text fill="#000000" font-family="sans-serif" font-size="13" lengthAdjust="spacing" textLength="182" x="90.5" y="598.1528">&#50672;&#44208; &#48708;&#48128;&#48264;&#54840;(password.blepw) &#54869;&#51064;</text><polygon fill="#181818" points="267.5,641.3516,277.5,645.3516,267.5,649.3516,271.5,645.3516" style="stroke:#181818;stroke-width:1.0;"/><line style="stroke:#181818;stroke-width:1.0;" x1="58.5" x2="273.5" y1="645.3516" y2="645.3516"/><text fill="#000000" font-family="sans-serif" font-size="13" font-weight="bold" lengthAdjust="spacing" textLength="21" x="65.5" y="640.2856">(8)</text><text fill="#000000" font-family="sans-serif" font-size="13" font-weight="bold" lengthAdjust="spacing" textLength="26" x="90.5" y="640.2856">ack</text><text fill="#000000" font-family="sans-serif" font-size="13" lengthAdjust="spacing" textLength="44" x="120.5" y="640.2856">&#47700;&#49884;&#51648; &#51204;&#49569;</text><line style="stroke:#181818;stroke-width:1.0;" x1="279.5" x2="321.5" y1="674.4844" y2="674.4844"/><line style="stroke:#181818;stroke-width:1.0;" x1="321.5" x2="321.5" y1="674.4844" y2="687.4844"/><line style="stroke:#181818;stroke-width:1.0;" x1="280.5" x2="321.5" y1="687.4844" y2="687.4844"/><polygon fill="#181818" points="290.5,683.4844,280.5,687.4844,290.5,691.4844,286.5,687.4844" style="stroke:#181818;stroke-width:1.0;"/><text fill="#000000" font-family="sans-serif" font-size="13" font-weight="bold" lengthAdjust="spacing" textLength="21" x="286.5" y="669.4185">(9)</text><text fill="#000000" font-family="sans-serif" font-size="13" lengthAdjust="spacing" textLength="59" x="311.5" y="669.4185">profile &#49373;&#49457;</text><path d="M382,661.8516 L382,686.8516 L549,686.8516 L549,671.8516 L539,661.8516 L382,661.8516 " fill="#FEFFDD" style="stroke:#181818;stroke-width:0.5;"/><path d="M539,661.8516 L539,671.8516 L549,671.8516 L539,661.8516 " fill="#FEFFDD" style="stroke:#181818;stroke-width:0.5;"/><text fill="#000000" font-family="sans-serif" font-size="13" lengthAdjust="spacing" textLength="146" x="388" y="678.9185">&#54596;&#50836;&#49884; image, ci &#54637;&#47785; &#49444;&#51221; &#44032;&#45733;</text><polygon fill="#181818" points="69.5,712.6172,59.5,716.6172,69.5,720.6172,65.5,716.6172" style="stroke:#181818;stroke-width:1.0;"/><line style="stroke:#181818;stroke-width:1.0;" x1="63.5" x2="278.5" y1="716.6172" y2="716.6172"/><text fill="#000000" font-family="sans-serif" font-size="13" font-weight="bold" lengthAdjust="spacing" textLength="30" x="75.5" y="711.5513">(10)</text><text fill="#000000" font-family="sans-serif" font-size="13" font-weight="bold" lengthAdjust="spacing" textLength="48" x="109.5" y="711.5513">profile</text><text fill="#000000" font-family="sans-serif" font-size="13" lengthAdjust="spacing" textLength="44" x="161.5" y="711.5513">&#47700;&#49884;&#51648; &#51204;&#49569;</text><line style="stroke:#181818;stroke-width:1.0;" x1="58.5" x2="100.5" y1="745.75" y2="745.75"/><line style="stroke:#181818;stroke-width:1.0;" x1="100.5" x2="100.5" y1="745.75" y2="758.75"/><line style="stroke:#181818;stroke-width:1.0;" x1="59.5" x2="100.5" y1="758.75" y2="758.75"/><polygon fill="#181818" points="69.5,754.75,59.5,758.75,69.5,762.75,65.5,758.75" style="stroke:#181818;stroke-width:1.0;"/><text fill="#000000" font-family="sans-serif" font-size="13" font-weight="bold" lengthAdjust="spacing" textLength="30" x="65.5" y="740.6841">(11)</text><text fill="#000000" font-family="sans-serif" font-size="13" lengthAdjust="spacing" textLength="37" x="99.5" y="740.6841">VP &#49373;&#49457;</text><polygon fill="#181818" points="267.5,783.8828,277.5,787.8828,267.5,791.8828,271.5,787.8828" style="stroke:#181818;stroke-width:1.0;"/><line style="stroke:#181818;stroke-width:1.0;" x1="58.5" x2="273.5" y1="787.8828" y2="787.8828"/><text fill="#000000" font-family="sans-serif" font-size="13" font-weight="bold" lengthAdjust="spacing" textLength="30" x="65.5" y="782.8169">(12)</text><text fill="#000000" font-family="sans-serif" font-size="13" font-weight="bold" lengthAdjust="spacing" textLength="18" x="99.5" y="782.8169">vp</text><text fill="#000000" font-family="sans-serif" font-size="13" lengthAdjust="spacing" textLength="44" x="121.5" y="782.8169">&#47700;&#49884;&#51648; &#51204;&#49569;</text><line style="stroke:#181818;stroke-width:1.0;" x1="279.5" x2="321.5" y1="817.0156" y2="817.0156"/><line style="stroke:#181818;stroke-width:1.0;" x1="321.5" x2="321.5" y1="817.0156" y2="830.0156"/><line style="stroke:#181818;stroke-width:1.0;" x1="280.5" x2="321.5" y1="830.0156" y2="830.0156"/><polygon fill="#181818" points="290.5,826.0156,280.5,830.0156,290.5,834.0156,286.5,830.0156" style="stroke:#181818;stroke-width:1.0;"/><text fill="#000000" font-family="sans-serif" font-size="13" font-weight="bold" lengthAdjust="spacing" textLength="30" x="286.5" y="811.9497">(13)</text><text fill="#000000" font-family="sans-serif" font-size="13" lengthAdjust="spacing" textLength="37" x="320.5" y="811.9497">VP &#44160;&#51613;</text><polygon fill="#181818" points="69.5,855.1484,59.5,859.1484,69.5,863.1484,65.5,859.1484" style="stroke:#181818;stroke-width:1.0;"/><line style="stroke:#181818;stroke-width:1.0;" x1="63.5" x2="278.5" y1="859.1484" y2="859.1484"/><text fill="#000000" font-family="sans-serif" font-size="13" font-weight="bold" lengthAdjust="spacing" textLength="30" x="75.5" y="854.0825">(14)</text><text fill="#000000" font-family="sans-serif" font-size="13" font-weight="bold" lengthAdjust="spacing" textLength="40" x="109.5" y="854.0825">finish</text><text fill="#000000" font-family="sans-serif" font-size="13" lengthAdjust="spacing" textLength="44" x="153.5" y="854.0825">&#47700;&#49884;&#51648; &#51204;&#49569;</text><rect fill="#EEEEEE" height="3" style="stroke:#EEEEEE;stroke-width:1.0;" width="574.5" x="0" y="894.7148"/><line style="stroke:#000000;stroke-width:1.0;" x1="0" x2="574.5" y1="894.7148" y2="894.7148"/><line style="stroke:#000000;stroke-width:1.0;" x1="0" x2="574.5" y1="897.7148" y2="897.7148"/><rect fill="#EEEEEE" height="23.1328" style="stroke:#000000;stroke-width:2.0;" width="56" x="259.25" y="884.1484"/><text fill="#000000" font-family="sans-serif" font-size="13" font-weight="bold" lengthAdjust="spacing" textLength="37" x="265.25" y="900.2153">&#44144;&#47000; &#51333;&#47308;</text><line style="stroke:#181818;stroke-width:1.0;" x1="59.5" x2="69.5" y1="938.4141" y2="934.4141"/><line style="stroke:#181818;stroke-width:1.0;" x1="59.5" x2="69.5" y1="938.4141" y2="942.4141"/><line style="stroke:#181818;stroke-width:1.0;" x1="277.5" x2="267.5" y1="938.4141" y2="934.4141"/><line style="stroke:#181818;stroke-width:1.0;" x1="277.5" x2="267.5" y1="938.4141" y2="942.4141"/><line style="stroke:#181818;stroke-width:1.0;stroke-dasharray:2.0,2.0;" x1="58.5" x2="278.5" y1="938.4141" y2="938.4141"/><text fill="#000000" font-family="sans-serif" font-size="13" font-weight="bold" lengthAdjust="spacing" textLength="30" x="75.5" y="933.3481">(15)</text><text fill="#000000" font-family="sans-serif" font-size="13" lengthAdjust="spacing" textLength="64" x="109.5" y="933.3481">BLE &#50672;&#44208; &#54644;&#51228;</text></g></svg>