<?xml version="1.0" encoding="UTF-8" standalone="no"?><svg xmlns="http://www.w3.org/2000/svg" xmlns:xlink="http://www.w3.org/1999/xlink" contentScriptType="application/ecmascript" contentStyleType="text/css" height="1012px" preserveAspectRatio="none" style="width:595px;height:1012px;" version="1.1" viewBox="0 0 595 1012" width="595px" zoomAndPan="magnify"><defs><filter height="300%" id="f106w9thee7is0" width="300%" x="-1" y="-1"><feGaussianBlur result="blurOut" stdDeviation="2.0"/><feColorMatrix in="blurOut" result="blurOut2" type="matrix" values="0 0 0 0 0 0 0 0 0 0 0 0 0 0 0 0 0 0 .4 0"/><feOffset dx="4.0" dy="4.0" in="blurOut2" result="blurOut3"/><feBlend in="SourceGraphic" in2="blurOut3" mode="normal"/></filter></defs><g><text fill="#000000" font-family="sans-serif" font-size="25" font-weight="bold" lengthAdjust="spacingAndGlyphs" textLength="408" x="89.25" y="33.2056">BLE + QR-CPM indirect mode</text><rect fill="#FFFFFF" filter="url(#f106w9thee7is0)" height="88.3984" style="stroke: #000000; stroke-width: 2.0;" width="432.5" x="13" y="389.2891"/><rect fill="#FFFFFF" filter="url(#f106w9thee7is0)" height="331.3281" style="stroke: #000000; stroke-width: 2.0;" width="560.5" x="13" y="534.8203"/><line style="stroke: #A80036; stroke-width: 1.0; stroke-dasharray: 5.0,5.0;" x1="63" x2="63" y1="97.6953" y2="955.4141"/><line style="stroke: #A80036; stroke-width: 1.0; stroke-dasharray: 5.0,5.0;" x1="284.5" x2="284.5" y1="97.6953" y2="955.4141"/><rect fill="#FEFECE" filter="url(#f106w9thee7is0)" height="46.5938" style="stroke: #A80036; stroke-width: 1.5;" width="77" x="23" y="46.1016"/><text fill="#000000" font-family="sans-serif" font-size="14" font-style="italic" lengthAdjust="spacingAndGlyphs" textLength="63" x="30" y="67.1016">«Mobile»</text><text fill="#000000" font-family="sans-serif" font-size="14" lengthAdjust="spacingAndGlyphs" textLength="32" x="45.5" y="83.3984">신분증앱</text><rect fill="#FEFECE" filter="url(#f106w9thee7is0)" height="46.5938" style="stroke: #A80036; stroke-width: 1.5;" width="77" x="23" y="954.4141"/><text fill="#000000" font-family="sans-serif" font-size="14" font-style="italic" lengthAdjust="spacingAndGlyphs" textLength="63" x="30" y="975.4141">«Mobile»</text><text fill="#000000" font-family="sans-serif" font-size="14" lengthAdjust="spacingAndGlyphs" textLength="32" x="45.5" y="991.7109">신분증앱</text><rect fill="#FEFECE" filter="url(#f106w9thee7is0)" height="46.5938" style="stroke: #A80036; stroke-width: 1.5;" width="80" x="242.5" y="46.1016"/><text fill="#000000" font-family="sans-serif" font-size="14" font-style="italic" lengthAdjust="spacingAndGlyphs" textLength="66" x="249.5" y="67.1016">«Device»</text><text fill="#000000" font-family="sans-serif" font-size="14" lengthAdjust="spacingAndGlyphs" textLength="32" x="266.5" y="83.3984">응대장치</text><rect fill="#FEFECE" filter="url(#f106w9thee7is0)" height="46.5938" style="stroke: #A80036; stroke-width: 1.5;" width="80" x="242.5" y="954.4141"/><text fill="#000000" font-family="sans-serif" font-size="14" font-style="italic" lengthAdjust="spacingAndGlyphs" textLength="66" x="249.5" y="975.4141">«Device»</text><text fill="#000000" font-family="sans-serif" font-size="14" lengthAdjust="spacingAndGlyphs" textLength="32" x="266.5" y="991.7109">응대장치</text><rect fill="#EEEEEE" filter="url(#f106w9thee7is0)" height="3" style="stroke: #EEEEEE; stroke-width: 1.0;" width="580.5" x="3" y="128.2617"/><line style="stroke: #000000; stroke-width: 1.0;" x1="3" x2="583.5" y1="128.2617" y2="128.2617"/><line style="stroke: #000000; stroke-width: 1.0;" x1="3" x2="583.5" y1="131.2617" y2="131.2617"/><rect fill="#EEEEEE" filter="url(#f106w9thee7is0)" height="23.1328" style="stroke: #000000; stroke-width: 2.0;" width="43" x="271.75" y="117.6953"/><text fill="#000000" font-family="sans-serif" font-size="13" font-weight="bold" lengthAdjust="spacingAndGlyphs" textLength="24" x="277.75" y="133.7622">선처리</text><line style="stroke: #A80036; stroke-width: 1.0;" x1="63.5" x2="105.5" y1="230.9922" y2="230.9922"/><line style="stroke: #A80036; stroke-width: 1.0;" x1="105.5" x2="105.5" y1="230.9922" y2="243.9922"/><line style="stroke: #A80036; stroke-width: 1.0;" x1="64.5" x2="105.5" y1="243.9922" y2="243.9922"/><polygon fill="#A80036" points="74.5,239.9922,64.5,243.9922,74.5,247.9922,70.5,243.9922" style="stroke: #A80036; stroke-width: 1.0;"/><text fill="#000000" font-family="sans-serif" font-size="13" font-weight="bold" lengthAdjust="spacingAndGlyphs" textLength="21" x="70.5" y="225.9263">(1)</text><text fill="#000000" font-family="sans-serif" font-size="13" font-weight="bold" lengthAdjust="spacingAndGlyphs" textLength="40" x="95.5" y="225.9263">M150</text><text fill="#000000" font-family="sans-serif" font-size="13" lengthAdjust="spacingAndGlyphs" textLength="44" x="139.5" y="225.9263">메시지 생성</text><path d="M195,155.8281 L195,301.8281 L558,301.8281 L558,165.8281 L548,155.8281 L195,155.8281 " fill="#FBFB77" filter="url(#f106w9thee7is0)" style="stroke: #A80036; stroke-width: 1.0;"/><path d="M548,155.8281 L548,165.8281 L558,165.8281 L548,155.8281 " fill="#FBFB77" style="stroke: #A80036; stroke-width: 1.0;"/><text fill="#000000" font-family="sans-serif" font-size="13" font-weight="bold" lengthAdjust="spacingAndGlyphs" textLength="55" x="201" y="172.895">-- M150</text><text fill="#000000" font-family="sans-serif" font-size="13" lengthAdjust="spacingAndGlyphs" textLength="8" x="201" y="188.0278">{</text><text fill="#000000" font-family="sans-serif" font-size="13" lengthAdjust="spacingAndGlyphs" textLength="80" x="209" y="203.1606">"type":"mip",</text><text fill="#000000" font-family="sans-serif" font-size="13" lengthAdjust="spacingAndGlyphs" textLength="106" x="209" y="218.2935">"version":"1.0.0",</text><text fill="#000000" font-family="sans-serif" font-size="13" lengthAdjust="spacingAndGlyphs" textLength="80" x="209" y="233.4263">"cmd":"150",</text><text fill="#000000" font-family="sans-serif" font-size="13" lengthAdjust="spacingAndGlyphs" textLength="284" x="209" y="248.5591">"trxcode":"20211102162732145432176790",</text><text fill="#000000" font-family="sans-serif" font-size="13" lengthAdjust="spacingAndGlyphs" textLength="334" x="209" y="263.6919">"bleid":"550e8400-e29b-41d4-a716-446655440000",</text><text fill="#000000" font-family="sans-serif" font-size="13" lengthAdjust="spacingAndGlyphs" textLength="148" x="209" y="278.8247">"blepwd":"1234567890"</text><text fill="#000000" font-family="sans-serif" font-size="13" lengthAdjust="spacingAndGlyphs" textLength="8" x="201" y="293.9575">}</text><line style="stroke: #A80036; stroke-width: 1.0;" x1="63.5" x2="105.5" y1="332.1563" y2="332.1563"/><line style="stroke: #A80036; stroke-width: 1.0;" x1="105.5" x2="105.5" y1="332.1563" y2="345.1563"/><line style="stroke: #A80036; stroke-width: 1.0;" x1="64.5" x2="105.5" y1="345.1563" y2="345.1563"/><polygon fill="#A80036" points="74.5,341.1563,64.5,345.1563,74.5,349.1563,70.5,345.1563" style="stroke: #A80036; stroke-width: 1.0;"/><text fill="#000000" font-family="sans-serif" font-size="13" font-weight="bold" lengthAdjust="spacingAndGlyphs" textLength="21" x="70.5" y="327.0903">(2)</text><text fill="#000000" font-family="sans-serif" font-size="13" lengthAdjust="spacingAndGlyphs" textLength="38" x="95.5" y="327.0903">QR 표출</text><line style="stroke: #A80036; stroke-width: 1.0;" x1="282.5" x2="272.5" y1="374.2891" y2="370.2891"/><line style="stroke: #A80036; stroke-width: 1.0;" x1="282.5" x2="272.5" y1="374.2891" y2="378.2891"/><line style="stroke: #A80036; stroke-width: 1.0; stroke-dasharray: 2.0,2.0;" x1="63.5" x2="283.5" y1="374.2891" y2="374.2891"/><text fill="#000000" font-family="sans-serif" font-size="13" font-weight="bold" lengthAdjust="spacingAndGlyphs" textLength="21" x="70.5" y="369.2231">(3)</text><text fill="#000000" font-family="sans-serif" font-size="13" lengthAdjust="spacingAndGlyphs" textLength="34" x="95.5" y="369.2231">QR스캔</text><path d="M13,389.2891 L135,389.2891 L135,396.2891 L125,406.2891 L13,406.2891 L13,389.2891 " fill="#EEEEEE" style="stroke: #000000; stroke-width: 1.0;"/><rect fill="none" height="88.3984" style="stroke: #000000; stroke-width: 2.0;" width="432.5" x="13" y="389.2891"/><text fill="#000000" font-family="sans-serif" font-size="13" font-weight="bold" lengthAdjust="spacingAndGlyphs" textLength="77" x="28" y="402.356">BLE 연결 초기화</text><line style="stroke: #A80036; stroke-width: 1.0;" x1="284.5" x2="326.5" y1="427.5547" y2="427.5547"/><line style="stroke: #A80036; stroke-width: 1.0;" x1="326.5" x2="326.5" y1="427.5547" y2="440.5547"/><line style="stroke: #A80036; stroke-width: 1.0;" x1="285.5" x2="326.5" y1="440.5547" y2="440.5547"/><polygon fill="#A80036" points="295.5,436.5547,285.5,440.5547,295.5,444.5547,291.5,440.5547" style="stroke: #A80036; stroke-width: 1.0;"/><text fill="#000000" font-family="sans-serif" font-size="13" font-weight="bold" lengthAdjust="spacingAndGlyphs" textLength="21" x="291.5" y="422.4888">(4)</text><text fill="#000000" font-family="sans-serif" font-size="13" lengthAdjust="spacingAndGlyphs" textLength="117" x="316.5" y="422.4888">M150.bleid 로 기기검색</text><line style="stroke: #A80036; stroke-width: 1.0;" x1="63.5" x2="73.5" y1="469.6875" y2="465.6875"/><line style="stroke: #A80036; stroke-width: 1.0;" x1="63.5" x2="73.5" y1="469.6875" y2="473.6875"/><line style="stroke: #A80036; stroke-width: 1.0; stroke-dasharray: 2.0,2.0;" x1="63.5" x2="283.5" y1="469.6875" y2="469.6875"/><text fill="#000000" font-family="sans-serif" font-size="13" font-weight="bold" lengthAdjust="spacingAndGlyphs" textLength="21" x="80.5" y="464.6216">(5)</text><text fill="#000000" font-family="sans-serif" font-size="13" lengthAdjust="spacingAndGlyphs" textLength="44" x="105.5" y="464.6216">BLE 연결</text><rect fill="#EEEEEE" filter="url(#f106w9thee7is0)" height="3" style="stroke: #EEEEEE; stroke-width: 1.0;" width="580.5" x="3" y="505.2539"/><line style="stroke: #000000; stroke-width: 1.0;" x1="3" x2="583.5" y1="505.2539" y2="505.2539"/><line style="stroke: #000000; stroke-width: 1.0;" x1="3" x2="583.5" y1="508.2539" y2="508.2539"/><rect fill="#EEEEEE" filter="url(#f106w9thee7is0)" height="23.1328" style="stroke: #000000; stroke-width: 2.0;" width="94" x="246.25" y="494.6875"/><text fill="#000000" font-family="sans-serif" font-size="13" font-weight="bold" lengthAdjust="spacingAndGlyphs" textLength="75" x="252.25" y="510.7544">VP 제출 및 검증</text><path d="M13,534.8203 L130,534.8203 L130,541.8203 L120,551.8203 L13,551.8203 L13,534.8203 " fill="#EEEEEE" style="stroke: #000000; stroke-width: 1.0;"/><rect fill="none" height="331.3281" style="stroke: #000000; stroke-width: 2.0;" width="560.5" x="13" y="534.8203"/><text fill="#000000" font-family="sans-serif" font-size="13" font-weight="bold" lengthAdjust="spacingAndGlyphs" textLength="72" x="28" y="547.8872">BLE 인터페이스</text><polygon fill="#A80036" points="74.5,569.0859,64.5,573.0859,74.5,577.0859,70.5,573.0859" style="stroke: #A80036; stroke-width: 1.0;"/><line style="stroke: #A80036; stroke-width: 1.0;" x1="68.5" x2="283.5" y1="573.0859" y2="573.0859"/><text fill="#000000" font-family="sans-serif" font-size="13" font-weight="bold" lengthAdjust="spacingAndGlyphs" textLength="21" x="80.5" y="568.02">(6)</text><text fill="#000000" font-family="sans-serif" font-size="13" font-weight="bold" lengthAdjust="spacingAndGlyphs" textLength="72" x="105.5" y="568.02">password</text><text fill="#000000" font-family="sans-serif" font-size="13" lengthAdjust="spacingAndGlyphs" textLength="44" x="181.5" y="568.02">메시지 전송</text><line style="stroke: #A80036; stroke-width: 1.0;" x1="63.5" x2="105.5" y1="602.2188" y2="602.2188"/><line style="stroke: #A80036; stroke-width: 1.0;" x1="105.5" x2="105.5" y1="602.2188" y2="615.2188"/><line style="stroke: #A80036; stroke-width: 1.0;" x1="64.5" x2="105.5" y1="615.2188" y2="615.2188"/><polygon fill="#A80036" points="74.5,611.2188,64.5,615.2188,74.5,619.2188,70.5,615.2188" style="stroke: #A80036; stroke-width: 1.0;"/><text fill="#000000" font-family="sans-serif" font-size="13" font-weight="bold" lengthAdjust="spacingAndGlyphs" textLength="21" x="70.5" y="597.1528">(7)</text><text fill="#000000" font-family="sans-serif" font-size="13" lengthAdjust="spacingAndGlyphs" textLength="182" x="95.5" y="597.1528">연결 비밀번호(password.blepw) 확인</text><polygon fill="#A80036" points="272.5,640.3516,282.5,644.3516,272.5,648.3516,276.5,644.3516" style="stroke: #A80036; stroke-width: 1.0;"/><line style="stroke: #A80036; stroke-width: 1.0;" x1="63.5" x2="278.5" y1="644.3516" y2="644.3516"/><text fill="#000000" font-family="sans-serif" font-size="13" font-weight="bold" lengthAdjust="spacingAndGlyphs" textLength="21" x="70.5" y="639.2856">(8)</text><text fill="#000000" font-family="sans-serif" font-size="13" font-weight="bold" lengthAdjust="spacingAndGlyphs" textLength="26" x="95.5" y="639.2856">ack</text><text fill="#000000" font-family="sans-serif" font-size="13" lengthAdjust="spacingAndGlyphs" textLength="44" x="125.5" y="639.2856">메시지 전송</text><line style="stroke: #A80036; stroke-width: 1.0;" x1="284.5" x2="326.5" y1="673.4844" y2="673.4844"/><line style="stroke: #A80036; stroke-width: 1.0;" x1="326.5" x2="326.5" y1="673.4844" y2="686.4844"/><line style="stroke: #A80036; stroke-width: 1.0;" x1="285.5" x2="326.5" y1="686.4844" y2="686.4844"/><polygon fill="#A80036" points="295.5,682.4844,285.5,686.4844,295.5,690.4844,291.5,686.4844" style="stroke: #A80036; stroke-width: 1.0;"/><text fill="#000000" font-family="sans-serif" font-size="13" font-weight="bold" lengthAdjust="spacingAndGlyphs" textLength="21" x="291.5" y="668.4185">(9)</text><text fill="#000000" font-family="sans-serif" font-size="13" lengthAdjust="spacingAndGlyphs" textLength="59" x="316.5" y="668.4185">profile 생성</text><path d="M387,658.8516 L387,683.8516 L554,683.8516 L554,668.8516 L544,658.8516 L387,658.8516 " fill="#FBFB77" filter="url(#f106w9thee7is0)" style="stroke: #A80036; stroke-width: 1.0;"/><path d="M544,658.8516 L544,668.8516 L554,668.8516 L544,658.8516 " fill="#FBFB77" style="stroke: #A80036; stroke-width: 1.0;"/><text fill="#000000" font-family="sans-serif" font-size="13" lengthAdjust="spacingAndGlyphs" textLength="146" x="393" y="675.9185">필요시 image, ci 항목 설정 가능</text><polygon fill="#A80036" points="74.5,711.6172,64.5,715.6172,74.5,719.6172,70.5,715.6172" style="stroke: #A80036; stroke-width: 1.0;"/><line style="stroke: #A80036; stroke-width: 1.0;" x1="68.5" x2="283.5" y1="715.6172" y2="715.6172"/><text fill="#000000" font-family="sans-serif" font-size="13" font-weight="bold" lengthAdjust="spacingAndGlyphs" textLength="30" x="80.5" y="710.5513">(10)</text><text fill="#000000" font-family="sans-serif" font-size="13" font-weight="bold" lengthAdjust="spacingAndGlyphs" textLength="48" x="114.5" y="710.5513">profile</text><text fill="#000000" font-family="sans-serif" font-size="13" lengthAdjust="spacingAndGlyphs" textLength="44" x="166.5" y="710.5513">메시지 전송</text><line style="stroke: #A80036; stroke-width: 1.0;" x1="63.5" x2="105.5" y1="744.75" y2="744.75"/><line style="stroke: #A80036; stroke-width: 1.0;" x1="105.5" x2="105.5" y1="744.75" y2="757.75"/><line style="stroke: #A80036; stroke-width: 1.0;" x1="64.5" x2="105.5" y1="757.75" y2="757.75"/><polygon fill="#A80036" points="74.5,753.75,64.5,757.75,74.5,761.75,70.5,757.75" style="stroke: #A80036; stroke-width: 1.0;"/><text fill="#000000" font-family="sans-serif" font-size="13" font-weight="bold" lengthAdjust="spacingAndGlyphs" textLength="30" x="70.5" y="739.6841">(11)</text><text fill="#000000" font-family="sans-serif" font-size="13" lengthAdjust="spacingAndGlyphs" textLength="37" x="104.5" y="739.6841">VP 생성</text><polygon fill="#A80036" points="272.5,782.8828,282.5,786.8828,272.5,790.8828,276.5,786.8828" style="stroke: #A80036; stroke-width: 1.0;"/><line style="stroke: #A80036; stroke-width: 1.0;" x1="63.5" x2="278.5" y1="786.8828" y2="786.8828"/><text fill="#000000" font-family="sans-serif" font-size="13" font-weight="bold" lengthAdjust="spacingAndGlyphs" textLength="30" x="70.5" y="781.8169">(12)</text><text fill="#000000" font-family="sans-serif" font-size="13" font-weight="bold" lengthAdjust="spacingAndGlyphs" textLength="18" x="104.5" y="781.8169">vp</text><text fill="#000000" font-family="sans-serif" font-size="13" lengthAdjust="spacingAndGlyphs" textLength="44" x="126.5" y="781.8169">메시지 전송</text><line style="stroke: #A80036; stroke-width: 1.0;" x1="284.5" x2="326.5" y1="816.0156" y2="816.0156"/><line style="stroke: #A80036; stroke-width: 1.0;" x1="326.5" x2="326.5" y1="816.0156" y2="829.0156"/><line style="stroke: #A80036; stroke-width: 1.0;" x1="285.5" x2="326.5" y1="829.0156" y2="829.0156"/><polygon fill="#A80036" points="295.5,825.0156,285.5,829.0156,295.5,833.0156,291.5,829.0156" style="stroke: #A80036; stroke-width: 1.0;"/><text fill="#000000" font-family="sans-serif" font-size="13" font-weight="bold" lengthAdjust="spacingAndGlyphs" textLength="30" x="291.5" y="810.9497">(13)</text><text fill="#000000" font-family="sans-serif" font-size="13" lengthAdjust="spacingAndGlyphs" textLength="37" x="325.5" y="810.9497">VP 검증</text><polygon fill="#A80036" points="74.5,854.1484,64.5,858.1484,74.5,862.1484,70.5,858.1484" style="stroke: #A80036; stroke-width: 1.0;"/><line style="stroke: #A80036; stroke-width: 1.0;" x1="68.5" x2="283.5" y1="858.1484" y2="858.1484"/><text fill="#000000" font-family="sans-serif" font-size="13" font-weight="bold" lengthAdjust="spacingAndGlyphs" textLength="30" x="80.5" y="853.0825">(14)</text><text fill="#000000" font-family="sans-serif" font-size="13" font-weight="bold" lengthAdjust="spacingAndGlyphs" textLength="40" x="114.5" y="853.0825">finish</text><text fill="#000000" font-family="sans-serif" font-size="13" lengthAdjust="spacingAndGlyphs" textLength="44" x="158.5" y="853.0825">메시지 전송</text><rect fill="#EEEEEE" filter="url(#f106w9thee7is0)" height="3" style="stroke: #EEEEEE; stroke-width: 1.0;" width="580.5" x="3" y="893.7148"/><line style="stroke: #000000; stroke-width: 1.0;" x1="3" x2="583.5" y1="893.7148" y2="893.7148"/><line style="stroke: #000000; stroke-width: 1.0;" x1="3" x2="583.5" y1="896.7148" y2="896.7148"/><rect fill="#EEEEEE" filter="url(#f106w9thee7is0)" height="23.1328" style="stroke: #000000; stroke-width: 2.0;" width="56" x="265.25" y="883.1484"/><text fill="#000000" font-family="sans-serif" font-size="13" font-weight="bold" lengthAdjust="spacingAndGlyphs" textLength="37" x="271.25" y="899.2153">거래 종료</text><line style="stroke: #A80036; stroke-width: 1.0;" x1="63.5" x2="73.5" y1="937.4141" y2="933.4141"/><line style="stroke: #A80036; stroke-width: 1.0;" x1="63.5" x2="73.5" y1="937.4141" y2="941.4141"/><line style="stroke: #A80036; stroke-width: 1.0;" x1="282.5" x2="272.5" y1="937.4141" y2="933.4141"/><line style="stroke: #A80036; stroke-width: 1.0;" x1="282.5" x2="272.5" y1="937.4141" y2="941.4141"/><line style="stroke: #A80036; stroke-width: 1.0; stroke-dasharray: 2.0,2.0;" x1="63.5" x2="283.5" y1="937.4141" y2="937.4141"/><text fill="#000000" font-family="sans-serif" font-size="13" font-weight="bold" lengthAdjust="spacingAndGlyphs" textLength="30" x="80.5" y="932.3481">(15)</text><text fill="#000000" font-family="sans-serif" font-size="13" lengthAdjust="spacingAndGlyphs" textLength="64" x="114.5" y="932.3481">BLE 연결 해제</text></g></svg>